<?xml version="1.0" encoding="UTF-8"?>
<!DOCTYPE svg PUBLIC "-//W3C//DTD SVG 1.1//EN" "http://www.w3.org/Graphics/SVG/1.1/DTD/svg11.dtd">
<!-- Creator: CorelDRAW -->
<svg xmlns="http://www.w3.org/2000/svg" xml:space="preserve" width="50mm" height="50mm" version="1.1" style="shape-rendering:geometricPrecision; text-rendering:geometricPrecision; image-rendering:optimizeQuality; fill-rule:evenodd; clip-rule:evenodd"
viewBox="0 0 1752.32 1752.32"
 xmlns:xlink="http://www.w3.org/1999/xlink"
 xmlns:xodm="http://www.corel.com/coreldraw/odm/2003">
 <defs>
  <style type="text/css">
   <![CDATA[
    .fil0 {fill:#FEFEFE}
   ]]>
  </style>
 </defs>
 <g id="Camada_x0020_1">
  <metadata id="CorelCorpID_0Corel-Layer"/>
  <path class="fil0" d="M587.51 1333.41c-3.91,-27.09 9.43,-50.4 23.15,-60.1 19.51,-13.79 48.3,-13.12 77.29,-13.1l351.73 0c34.56,0 116.45,-12.67 122.7,56.44 2.44,26.99 -10.97,50.17 -25.52,59.24 -22.85,14.26 -45.44,12.27 -76.7,12.26l-351.73 0c-25.12,0 -61.76,3.16 -83.4,-5.48 -18.52,-7.41 -34.19,-26.06 -37.54,-49.26zm224.87 -377.52c-5.87,-140.97 -0.4,-341.2 -0.6,-493.32 -0.05,-33.37 -3.36,-99.58 63.98,-99.28 67.41,0.31 63.99,64.59 63.95,99.28 -0.15,134.16 6.8,385.72 -0.81,493.7 19.96,-9.95 128.51,-124.58 152.36,-148.42 23.93,-23.91 62.67,-53.44 103.92,-15.83 30.26,27.59 25.33,67.2 -8.11,101.38l-223.62 223.77c-17.32,17.33 -49.56,60.91 -87.7,60.92 -38,0.01 -71.72,-45.45 -89.13,-62.89l-221.97 -221.98c-28.38,-28.63 -45.81,-66.37 -6.03,-102.36 41.46,-37.51 79.87,-4.86 101.53,17.09 22.86,23.17 133.03,138.82 152.21,147.94zm934.7 497.04c7.57,-63.76 2.9,-787.3 2.9,-870.83 0,-131.45 16.7,-293.06 -39.19,-398.18 -44.39,-83.49 -132.65,-163.11 -257.95,-179.47 -62.51,-8.16 -960.4,-2.59 -1089.3,-2.85 -75.1,-0.15 -120.43,9.47 -179.05,39.33 -86.19,43.92 -164.74,137.66 -179.93,257.36 -8.24,64.94 -2.77,959.48 -2.96,1089.75 -0.11,73.91 10.43,123.3 39.15,179.43 41.8,81.7 135.26,164.24 257.52,179.48 63.01,7.85 788.25,3 871.16,3 129.78,0 294.37,16.76 397.79,-39.24 81.58,-44.18 164.85,-131.42 179.84,-257.79z"/>
 </g>
</svg>
