<?xml version="1.0" encoding="UTF-8"?>
<!DOCTYPE svg PUBLIC "-//W3C//DTD SVG 1.1//EN" "http://www.w3.org/Graphics/SVG/1.1/DTD/svg11.dtd">
<!-- Creator: CorelDRAW -->
<svg xmlns="http://www.w3.org/2000/svg" xml:space="preserve" width="50mm" height="50mm" version="1.1" style="shape-rendering:geometricPrecision; text-rendering:geometricPrecision; image-rendering:optimizeQuality; fill-rule:evenodd; clip-rule:evenodd"
viewBox="0 0 1755.9 1755.9"
 xmlns:xlink="http://www.w3.org/1999/xlink"
 xmlns:xodm="http://www.corel.com/coreldraw/odm/2003">
 <defs>
  <style type="text/css">
   <![CDATA[
    .fil0 {fill:#FEFEFE}
   ]]>
  </style>
 </defs>
 <g id="Camada_x0020_1">
  <metadata id="CorelCorpID_0Corel-Layer"/>
  <path class="fil0" d="M635.07 1036.01c9.63,19.49 25.04,30.2 26.62,58.4 3.58,63.89 -73.15,112.52 -133.66,45.92 -29.15,-32.09 -59.58,-59.03 -81.8,-81.36 -14.5,-14.57 -27.74,-26.7 -40.38,-41.15 -59.99,-68.61 7.29,-114.02 42.65,-149.5 27.14,-27.23 55.07,-53.16 81.49,-81.65 28.92,-31.18 77.58,-44.5 111.84,-8.79 47.73,49.75 -1.69,103.63 -6.68,113.7 73.32,-4.84 348.93,-1.69 439.24,-0.89 202.54,1.79 327.5,177.84 293.54,348.56 -11.73,58.99 -37.34,102.76 -75.35,143.63 -91.05,97.92 -175.02,92.73 -340.49,92.73 -57.01,0 -163.25,12.93 -199.08,-18.98 -48.47,-43.18 -21.5,-122.34 46.95,-126.74 67.15,-4.31 149.95,-0.1 218.83,-0.1 77.08,0 130.07,-0.18 169.82,-47.15 86.84,-102.62 20.65,-245.14 -117.94,-245.91 -143.05,-0.8 -293.69,5.22 -435.61,-0.71zm-52.95 -1032.72c-110.29,-3.91 -284.48,-11.77 -375.72,29.3 -84.23,37.91 -157.89,114.86 -188.58,212 -26.56,84.1 -15.55,285.52 -15.55,385.98l0 600.8c0,190.53 -25.03,330.46 143.34,458.55 97.04,73.82 197.32,65.72 335.85,65.68l800.44 0c142.69,0 234.05,7.15 332.52,-68.95 82.01,-63.38 134.18,-149.2 138.8,-262.39 5.3,-129.67 0.48,-269.76 0.48,-400.57 0,-133.51 0,-267.03 0,-400.54 0,-100.24 11.29,-300.05 -17.51,-384.18 -32.99,-96.38 -96.08,-166.53 -191.94,-208.52 -57.78,-25.31 -104.92,-27.86 -173.43,-27.83 -34.49,0.02 -176.19,-4.12 -198.39,2.56 -4.09,65 3.32,423.08 -1.13,451.14 -2.61,16.44 -14.87,28.52 -30.52,30.38 -22.69,2.69 -94.12,-41.57 -114.36,-52.89 -159.1,-89.03 -151.46,-92.31 -235.47,-42.42 -23.02,13.67 -46.13,27.02 -70.17,41.19 -39.77,23.45 -130.02,94.41 -138.06,19.48 -5.71,-53.24 1.17,-357.7 -0.63,-448.78z"/>
 </g>
</svg>
