<?xml version="1.0" encoding="UTF-8"?>
<!DOCTYPE svg PUBLIC "-//W3C//DTD SVG 1.1//EN" "http://www.w3.org/Graphics/SVG/1.1/DTD/svg11.dtd">
<!-- Creator: CorelDRAW -->
<svg xmlns="http://www.w3.org/2000/svg" xml:space="preserve" width="50mm" height="50mm" version="1.1" style="shape-rendering:geometricPrecision; text-rendering:geometricPrecision; image-rendering:optimizeQuality; fill-rule:evenodd; clip-rule:evenodd"
viewBox="0 0 1899.67 1899.67"
 xmlns:xlink="http://www.w3.org/1999/xlink"
 xmlns:xodm="http://www.corel.com/coreldraw/odm/2003">
 <defs>
  <style type="text/css">
   <![CDATA[
    .fil0 {fill:#FEFEFE}
   ]]>
  </style>
 </defs>
 <g id="Camada_x0020_1">
  <metadata id="CorelCorpID_0Corel-Layer"/>
  <g id="_1798234200112">
   <path class="fil0" d="M681.18 420.8c15.08,-49.4 -15.44,-154.16 -27.22,-205.39 -17.52,-76.19 -20.66,-128.51 -63.96,-175.11 -107.13,-115.31 -494.05,27.96 -572.39,288.28 -42.87,142.46 0.12,271.47 47.81,392.08 58.4,147.71 137.43,309.21 220.08,440.2l116.58 174.71c102.4,133.91 151.24,202.23 270.23,324.23 44.38,45.5 137.49,131.21 186.25,165.32 101.8,71.2 237.11,98.93 375.78,49.71 115.16,-40.87 192.67,-118.57 260.78,-211.94 98.11,-134.48 69,-209.9 -62.04,-296.38 -97.98,-64.66 -204.7,-182.21 -311.55,-89.33 -42.78,37.19 -63.78,132.92 -130.71,89.31 -40.27,-26.24 -134.34,-146.26 -169.44,-190.63 -51.9,-65.6 -99.31,-133.87 -145.85,-206.02 -58.99,-91.48 -119.86,-193.96 -169.73,-304.1 -100.76,-222.54 119.94,-63.4 175.37,-244.94z"/>
   <path class="fil0" d="M1342.44 3.91c-283.31,34.14 -494.77,271.79 -420.53,542.15 46.38,168.93 124.23,146.65 128.05,240.35 3.22,79.06 -7.4,171.76 53.45,194.18 49.81,18.35 109.84,-32.31 167.3,-68.6 27.34,-17.27 48.53,-39.87 88.92,-36.06 282.84,26.69 545.81,-177.38 539.94,-447.03 -5.86,-269.3 -284.37,-457.86 -557.13,-424.99z"/>
  </g>
 </g>
</svg>
