<?xml version="1.0" encoding="UTF-8"?>
<!DOCTYPE svg PUBLIC "-//W3C//DTD SVG 1.1//EN" "http://www.w3.org/Graphics/SVG/1.1/DTD/svg11.dtd">
<!-- Creator: CorelDRAW -->
<svg xmlns="http://www.w3.org/2000/svg" xml:space="preserve" width="60mm" height="50mm" version="1.1" style="shape-rendering:geometricPrecision; text-rendering:geometricPrecision; image-rendering:optimizeQuality; fill-rule:evenodd; clip-rule:evenodd"
viewBox="0 0 7342.38 6118.65"
 xmlns:xlink="http://www.w3.org/1999/xlink"
 xmlns:xodm="http://www.corel.com/coreldraw/odm/2003">
 <defs>
  <style type="text/css">
   <![CDATA[
    .fil0 {fill:#FEFEFE}
   ]]>
  </style>
 </defs>
 <g id="Camada_x0020_1">
  <metadata id="CorelCorpID_0Corel-Layer"/>
  <path class="fil0" d="M4967.17 3099.82c-27.93,-172.9 -4.85,-562.33 -4.97,-757.77 -0.16,-266.03 34.79,-448.44 322.78,-457.1 862.99,-25.98 767.65,-39.21 1057.58,521.37 85.27,164.87 185.59,341.81 263.53,505.74 107.48,226.07 -44.89,418.87 -284.55,427.98 -143.83,5.47 -1060.03,24.55 -1172.13,-23.83 -86.3,-37.24 -165.24,-111.11 -182.25,-216.39zm-2829.91 -1084.43c101.32,-25.81 681.8,-379.81 867.04,-475.22 120.51,-62.07 256.86,-58.07 351.16,24.3 73.46,64.16 140.47,176.34 95.11,320.76 -34.7,110.48 -138.97,162.12 -240.18,216.55 -195.5,105.11 -369.65,213.15 -574.1,324.51 -147.9,80.56 -461.1,295.93 -624.53,284.99 -197.41,-13.22 -320.87,-268.65 -449.19,-452.99 -50.58,-72.67 -139.08,-176.68 -138.83,-294.91 0.27,-138.88 87.06,-230.48 185.14,-269.04 326.52,-128.34 399.51,208.33 528.39,321.03zm1251.24 3422.58l21.64 88.16 1103 1.08c2.48,-63.99 -5.26,-73.97 21.82,-120.42 -12.02,-722.67 1160.7,-1516.97 2047.8,-716.84 278.35,251.06 303.96,455.91 379.47,751.57 149.15,-51.73 324.9,-286.76 362.71,-493.98 28.6,-156.66 13.93,-1418.66 11.88,-1675.91 -2.29,-287.59 -113.2,-427.74 -218.4,-647.4 -91.54,-191.11 -186.8,-376.59 -281.09,-572.84 -233.3,-485.58 -298.54,-754.69 -981.42,-753.95 -288.23,0.29 -608.94,12.49 -893.1,-1.02 -1.95,-198.21 22.57,-585.9 -23.26,-757.46 -53.42,-199.95 -204.27,-362.44 -348.52,-439.98 -216.78,-116.52 -436.49,-92.12 -701.71,-92.11l-2449.28 0c-586.91,0 -1011.95,-80.19 -1299,308.33 -201.61,272.88 -127.84,1027.47 -127.84,1424.09 0,522.41 0,1044.81 0,1567.21 0,495.46 -29.54,1080.33 2.52,1564.87 15.28,230.56 147.85,423.42 271.51,509.46 215.92,150.25 351.92,159.7 671.89,154.73 21.43,-641.91 502.92,-1144.09 1159.89,-1174.12 365.7,-16.72 689.91,127.38 878.93,302.69 109.71,101.75 176.14,173.11 257.49,321.16 60.1,109.36 142.12,305.33 133.09,452.69z"/>
  <path class="fil0" d="M5135.03 5614.23c90.52,750.87 1313.47,627.59 1208.36,-155.62 -100.68,-750.26 -1303.08,-630.04 -1208.36,155.62z"/>
  <path class="fil0" d="M1572.25 5597c45.78,571.07 823.6,665.68 1076.22,320.97 358.32,-488.92 -30.87,-1022.21 -547.72,-964.13 -316.24,35.54 -555.82,302.59 -528.5,643.16z"/>
  <path class="fil0" d="M3388.5 5437.97c-7.62,156.09 85.45,106.87 250.52,106.59 113.22,-0.2 226.46,-0.26 339.68,-0.18 578.03,0.4 553.41,52.24 556.25,-137.58 -27.08,46.44 -19.33,56.43 -21.82,120.42l-1103 -1.08 -21.64 -88.16z"/>
 </g>
</svg>
