<?xml version="1.0" encoding="UTF-8"?>
<!DOCTYPE svg PUBLIC "-//W3C//DTD SVG 1.1//EN" "http://www.w3.org/Graphics/SVG/1.1/DTD/svg11.dtd">
<!-- Creator: CorelDRAW -->
<svg xmlns="http://www.w3.org/2000/svg" xml:space="preserve" width="50mm" height="50mm" version="1.1" style="shape-rendering:geometricPrecision; text-rendering:geometricPrecision; image-rendering:optimizeQuality; fill-rule:evenodd; clip-rule:evenodd"
viewBox="0 0 4043.5 4043.5"
 xmlns:xlink="http://www.w3.org/1999/xlink"
 xmlns:xodm="http://www.corel.com/coreldraw/odm/2003">
 <defs>
  <style type="text/css">
   <![CDATA[
    .fil0 {fill:#FEFEFE}
   ]]>
  </style>
 </defs>
 <g id="Camada_x0020_1">
  <metadata id="CorelCorpID_0Corel-Layer"/>
  <g id="_1798227739760">
   <path class="fil0" d="M9.61 2130.85c40.2,212.71 282.74,412.4 392.63,529.07 154.85,164.41 269.32,361.04 647.49,249.72 356.19,-104.85 664.03,-864.13 1092.96,-716.24 329.13,113.5 513.44,756.83 1099.21,740.23 206.72,-5.85 414.64,-296.98 524.18,-410.66 507.86,-527.04 233.84,-760.83 -147.59,-1154.99 -154.74,-159.89 -273.65,-357.76 -656.86,-226.14 -333.46,114.54 -671.82,841.91 -1054.17,713.79 -367.69,-123.21 -511.47,-742.79 -1088.27,-747 -197.52,-1.42 -223.23,57.94 -320.17,153.37 -238.22,234.47 -558.67,502.38 -489.41,868.86z"/>
   <path class="fil0" d="M912.17 888.54c647.87,81.43 806.6,729.5 1131.47,759.01 230.16,-33.55 427.12,-652.33 1074.07,-760.73 -26.08,-57.19 -402.91,-428.02 -479.34,-500.94 -150.42,-143.52 -302.11,-383.69 -622.56,-385.86 -299.07,-2.03 -480.27,250.26 -621.27,386.03 -75.89,73.09 -455.1,447.86 -482.37,502.49z"/>
   <path class="fil0" d="M916.06 3157.34c102.12,135.53 341.02,369.5 478.4,499.91 154.22,146.43 304.52,386.56 622.08,386.24 323.38,-0.29 462.51,-231.59 624.49,-383.62 164.68,-154.57 318.18,-326.33 476.89,-483.94 -104.45,-64.99 -298.94,-30.83 -605.09,-341.98 -597.48,-607.26 -419.21,-562.93 -1006.4,13.66 -167.28,164.24 -275.69,247.2 -590.38,309.73z"/>
  </g>
 </g>
</svg>
