<svg width="34" height="34" viewBox="0 0 34 34" fill="none" xmlns="http://www.w3.org/2000/svg">
<g id="Carrinho">
<path id="Vector" fill-rule="evenodd" clip-rule="evenodd" d="M16.635 0C11.3851 0 7.12928 3.72387 7.12928 8.3175V10.3969H4.75285C3.54197 10.3969 2.52469 11.1936 2.39097 12.2466L0.0145447 30.9611C-0.0600988 31.5489 0.154896 32.1367 0.605704 32.5774C1.05651 33.0182 1.70048 33.27 2.37643 33.27H30.8935C31.5694 33.27 32.2134 33.0182 32.6642 32.5774C33.115 32.1367 33.3301 31.5489 33.2555 30.9611L30.879 12.2466C30.7452 11.1936 29.7281 10.3969 28.5171 10.3969H26.1407V8.3175C26.1407 3.72387 21.8847 0 16.635 0ZM21.3878 10.3969V8.3175C21.3878 6.02068 19.26 4.15875 16.635 4.15875C14.0101 4.15875 11.8821 6.02068 11.8821 8.3175V10.3969H21.3878ZM7.12928 16.635C7.12928 15.4866 8.19325 14.5556 9.5057 14.5556C10.8182 14.5556 11.8821 15.4866 11.8821 16.635C11.8821 17.7834 10.8182 18.7144 9.5057 18.7144C8.19325 18.7144 7.12928 17.7834 7.12928 16.635ZM23.7643 14.5556C22.4518 14.5556 21.3878 15.4866 21.3878 16.635C21.3878 17.7834 22.4518 18.7144 23.7643 18.7144C25.0768 18.7144 26.1407 17.7834 26.1407 16.635C26.1407 15.4866 25.0768 14.5556 23.7643 14.5556Z" fill="white"/>
</g>
</svg>
