<?xml version="1.0" encoding="UTF-8"?>
<!DOCTYPE svg PUBLIC "-//W3C//DTD SVG 1.1//EN" "http://www.w3.org/Graphics/SVG/1.1/DTD/svg11.dtd">
<!-- Creator: CorelDRAW -->
<svg xmlns="http://www.w3.org/2000/svg" xml:space="preserve" width="59.5721mm" height="60mm" version="1.1" style="shape-rendering:geometricPrecision; text-rendering:geometricPrecision; image-rendering:optimizeQuality; fill-rule:evenodd; clip-rule:evenodd"
viewBox="0 0 6634.85 6682.51"
 xmlns:xlink="http://www.w3.org/1999/xlink"
 xmlns:xodm="http://www.corel.com/coreldraw/odm/2003">
 <defs>
  <style type="text/css">
   <![CDATA[
    .fil0 {fill:black}
   ]]>
  </style>
 </defs>
 <g id="Camada_x0020_1">
  <metadata id="CorelCorpID_0Corel-Layer"/>
  <path class="fil0" d="M2543.28 582.03c1133.19,-100.91 2108.08,863.55 2164.14,1935.16 61.18,1171.48 -836.14,2105.59 -1927.03,2178.11 -2655.16,176.46 -3063.95,-3861.46 -237.12,-4113.27zm3721.53 6100.49l259.74 0c42.23,-58.1 12.72,-8.26 48.85,-64.13 32.46,-50.23 21.51,-31.15 49.84,-86.3l11.61 -274.5c-66.16,-174.55 -1718.37,-1763.81 -1900.4,-1960.66 127.21,-277.05 308.79,-458.63 429.38,-823.81 111.8,-338.62 160.06,-731.28 120.26,-1121.51 -261.57,-2563.42 -3800.47,-3292.8 -5014.64,-866.56 -1095.09,2188.15 1327.68,5003.89 4026.9,3236.15 190.82,101.78 793.38,761.45 997.05,964.33 118.23,117.77 918.82,872.66 971.42,996.99z"/>
 </g>
</svg>
