<?xml version="1.0" encoding="UTF-8"?>
<!DOCTYPE svg PUBLIC "-//W3C//DTD SVG 1.1//EN" "http://www.w3.org/Graphics/SVG/1.1/DTD/svg11.dtd">
<!-- Creator: CorelDRAW -->
<svg xmlns="http://www.w3.org/2000/svg" xml:space="preserve" width="116.347mm" height="85.459mm" version="1.1" style="shape-rendering:geometricPrecision; text-rendering:geometricPrecision; image-rendering:optimizeQuality; fill-rule:evenodd; clip-rule:evenodd"
viewBox="0 0 11877.9 8724.5"
 xmlns:xlink="http://www.w3.org/1999/xlink"
 xmlns:xodm="http://www.corel.com/coreldraw/odm/2003">
 <defs>
  <style type="text/css">
   <![CDATA[
    .fil0 {fill:#912981}
   ]]>
  </style>
 </defs>
 <g id="Camada_x0020_1">
  <metadata id="CorelCorpID_0Corel-Layer"/>
  <g id="_1798228834128">
   <path class="fil0" d="M9625.51 3222.63l34.43 0 73.45 146.88c0.92,1.77 2.13,3.84 3.56,6.77l11.26 30.06c0.47,0.94 1.98,3.48 2.45,4.43 0.35,0.7 0.84,1.55 1.18,2.27l8.93 25.49c0.33,0.72 0.81,1.58 1.14,2.29l28.83 67.59c0.27,0.88 0.44,1.84 0.71,2.72 0.28,0.87 0.5,1.8 0.79,2.65 0.29,0.83 0.58,1.75 0.9,2.55l8.97 18.56c0.31,0.81 0.61,1.73 0.89,2.55l47.31 121.4c0.31,0.81 0.61,1.73 0.9,2.55l6.74 20.8c0.28,0.86 0.56,1.77 0.83,2.61l29.08 74.22c0.28,0.87 0.5,1.8 0.8,2.65l2.96 7.35c0.08,0.16 4.74,8.81 4.81,8.97l5.99 18.1c0.29,0.83 0.58,1.75 0.9,2.55l6.88 13.77c0.34,0.72 0.78,1.6 1.09,2.36l1.88 5c2.09,6.13 1.65,7.31 3.9,13.3l40.43 93.85c0.29,0.83 0.59,1.75 0.89,2.55 0.3,0.8 0.66,1.69 0.98,2.46l26.6 52.6c2.86,6.3 0.42,-0.1 2.94,7.38l73.75 153.48c0.35,0.71 0.76,1.62 1.11,2.33l25.34 43.52c0.4,0.81 1.89,3.79 2.29,4.59l89.32 151.69c0.41,0.62 0.88,1.52 1.27,2.16l46.26 70.81c14.43,20.25 28.01,32.47 38.76,50.75l2.55 4.34c0.58,0.82 2.44,3.02 3.1,3.77l31.17 37.7c1.44,1.43 5.42,5.76 6.48,7.28 21.39,30.75 30.03,34.34 35.75,43.44 0.4,0.64 0.84,1.57 1.21,2.23l258.42 233.9c12.82,8.18 22.28,18.74 36.46,25.52 2.61,1.25 2.11,0.89 4.72,2.15l61.91 37.94c0.7,0.35 1.59,0.8 2.3,1.14l18.45 9.1c0.71,0.35 1.63,0.75 2.34,1.1l20.46 13.97c0.88,0.53 3.59,1.89 4.51,2.37l80.46 36.61c0.69,0.35 1.58,0.81 2.28,1.16l98.49 39.22c0.83,0.28 1.7,0.63 2.53,0.92 0.82,0.28 1.69,0.63 2.52,0.92l36.26 11.92c0.89,0.31 4.16,1.54 5.04,1.84 0.84,0.29 1.72,0.62 2.55,0.91l83.5 23.21c0.95,0.22 1.83,0.45 2.75,0.7l30.13 7.74c0.84,0.27 1.66,0.69 2.49,0.96l117.05 24.1c5.21,0.14 7.78,-0.35 13.06,0.71 0.96,0.19 1.8,0.49 2.7,0.74 0.87,0.23 1.67,0.67 2.51,0.95 19.64,6.49 42.18,0.21 61.97,6.88l229.6 4.49 0 -454.48c-19.63,0 -42.95,1.09 -57.73,-4.24 -2.63,-0.95 -3.63,-1.28 -7.69,-2.63l-28.59 -9.28c-0.79,-0.31 -1.68,-0.66 -2.45,-0.99 -0.76,-0.32 -1.63,-0.75 -2.37,-1.07l-55.14 -34.37c-4.32,-2.76 -2.78,-1.34 -6.68,-3.65l-36.82 -32.04c-7.94,-4.51 -5.97,-0.38 -12.37,-8.28l-2.57 -4.31c-10.57,-17.82 -27.88,-32.27 -39.04,-43.59l-33.33 -45.85c-2.17,-3.4 -1.4,-1.89 -4.39,-5.94l-65.78 -106.37c-0.1,-0.15 -3.3,-3.86 -4.66,-5.68l-6.58 -10.62c-0.37,-0.7 -0.77,-1.62 -1.12,-2.33l-6.79 -13.87c-0.35,-0.7 -0.8,-1.59 -1.14,-2.3 -0.35,-0.69 -0.8,-1.59 -1.14,-2.29l-10.33 -20.66c-0.36,-0.7 -0.8,-1.59 -1.15,-2.3l-25.24 -53.93c-0.28,-0.89 -0.45,-1.84 -0.72,-2.73l-50.97 -117.73c-0.33,-0.77 -0.68,-1.66 -0.99,-2.46l-18.69 -50.16c-0.29,-0.82 -0.63,-1.69 -0.92,-2.52l-26.63 -80.11c-0.28,-0.83 -0.63,-1.7 -0.92,-2.52l-21.57 -64.49c-0.91,-2.66 -1.34,-4.14 -2.52,-7.81l-13.37 -41.72c-1.6,-8.39 -0.32,-6.22 -2.8,-14.43l-32.95 -111.63c-0.22,-0.95 -0.45,-1.83 -0.69,-2.75 -0.25,-0.89 -0.6,-1.74 -0.86,-2.58 -0.26,-0.84 -0.69,-1.66 -0.96,-2.49l-1.82 -5.07c-0.25,-0.91 -0.47,-1.8 -0.69,-2.75l-5.33 -22.2c-0.27,-0.87 -0.62,-1.72 -0.87,-2.59l-22.28 -91.33c-0.2,-1.06 -0.2,-1.99 -0.42,-3.03l-8.1 -33.21c-0.23,-0.89 -0.6,-1.74 -0.86,-2.58l-4.81 -19.29c-0.2,-1.02 -0.3,-1.93 -0.53,-2.92l-7.59 -30.28c-0.25,-0.87 -0.61,-1.72 -0.88,-2.57l-41.27 -179.06c-0.27,-0.85 -0.69,-1.66 -0.96,-2.49l-55.91 -209.19c-0.57,-1.66 -1.58,-4.66 -2.6,-7.72 -0.3,-0.85 -0.53,-1.79 -0.82,-2.63l-84.21 -246.3c-2.95,-6.33 -0.41,0.18 -2.97,-7.35 -2.12,-6.25 -1.59,-7.2 -3.91,-13.31l-12.88 -31.87c-2.52,-7.47 -0.08,-1.08 -2.94,-7.38 -0.45,-0.98 -1.87,-3.61 -2.35,-4.55l-2.36 -4.52c-0.36,-0.69 -0.81,-1.58 -1.16,-2.28l-50.49 -100.99c-1.35,-2.66 -2.47,-4.94 -3.45,-6.88l-35.21 -57.74c-0.42,-0.6 -1.01,-1.42 -1.41,-2.03l-27.54 -41.33c-0.41,-0.63 -0.85,-1.55 -1.23,-2.21 -0.4,-0.65 -0.81,-1.59 -1.19,-2.26 -0.39,-0.65 -0.81,-1.58 -1.19,-2.25 -0.39,-0.63 -0.87,-1.54 -1.27,-2.17l-10.06 -14.05c-0.39,-0.65 -0.82,-1.58 -1.2,-2.24l-20.67 -27.52c-4.74,-8.31 -0.12,-2.73 -6.78,-10.43l-79.57 -92.59c-0.6,-0.87 -3.06,-3.77 -4.75,-5.57l-17.33 -17.09c-7.33,-7.33 -12.48,-12.41 -18.95,-18.92l-26.37 -21.84c-0.66,-0.38 -1.58,-0.82 -2.23,-1.21 -28.73,-18.04 -44.02,-50.42 -73.51,-67.64 -11.9,-6.95 -25.09,-22.36 -27.67,-23.98l-8.97 -4.79c-0.62,-0.4 -1.51,-0.9 -2.11,-1.33l-57.85 -41.98c-0.63,-0.41 -1.52,-0.88 -2.16,-1.28 -0.37,-0.22 -4.09,-2.21 -4.46,-2.44l-13.94 -10.16c-0.62,-0.4 -1.49,-0.92 -2.13,-1.31 -0.89,-0.52 -3.59,-1.88 -4.52,-2.36 -0.7,-0.37 -1.62,-0.76 -2.34,-1.12l-32.22 -15.97c-0.7,-0.36 -1.59,-0.8 -2.3,-1.14l-36.65 -18.44c-0.78,-0.32 -1.66,-0.67 -2.46,-0.98l-20.66 -6.88c-0.71,-0.33 -1.57,-0.83 -2.27,-1.16l-14.05 -6.63c-3.85,-1.33 -4.35,-1.15 -8.01,-2.31 -0.86,-0.27 -1.77,-0.55 -2.62,-0.83 -0.84,-0.27 -1.72,-0.6 -2.55,-0.89l-25.57 -8.85c-5.49,-1.66 -1.83,-0.72 -8.33,-1.99l-106.33 -21.05c-27.13,-2.06 -0.06,-5.84 -30.73,-7.15 -10.98,-0.47 -23.94,0.97 -34.92,0.5 -30.58,-1.31 -3.7,-4.91 -30.61,-7.26l-251.69 -0.12c-30.6,1.32 -3.69,4.94 -30.6,7.27 -19.27,1.65 -35.79,-0.65 -50.73,4.36 -13.61,4.56 -31.45,1.47 -48.22,6.85l-48.81 9.73c-1.01,0.19 -1.93,0.29 -2.92,0.52 -0.95,0.21 -1.84,0.44 -2.76,0.69l-52.35 13.05c-0.96,0.21 -1.85,0.43 -2.78,0.67 -0.9,0.23 -1.76,0.55 -2.62,0.82l-20.53 7.01c-2.45,0.84 -2.59,1 -5.04,1.84l-121.41 50.73c-0.68,0.34 -4.44,2.22 -4.59,2.29l-11.47 5.75c-0.69,0.35 -1.59,0.8 -2.3,1.14l-20.65 10.32c-0.71,0.36 -1.59,0.8 -2.31,1.15l-27.89 16.86c-3.26,2.31 0.31,0.31 -6.39,3.93l-103.42 68.74c-12,6.84 -21.53,20.21 -34.42,27.54 -0.66,0.38 -1.6,0.78 -2.27,1.17 -0.65,0.38 -1.57,0.82 -2.22,1.21 -0.63,0.4 -1.52,0.9 -2.12,1.33 -3.5,2.42 -5.36,4.51 -8.99,8.22 -20.84,21.21 -35.38,28.76 -58.4,51.77 -25.28,25.28 -47.04,47 -72.33,72.28l-30.97 30.98c-15.66,15.28 -17.44,25.06 -48.2,55.09l-48.74 58c-7.27,12.45 -18.69,20.07 -26.32,32.21l-94.39 125.95c-2.19,3.44 -1.36,1.83 -4.4,5.93l-26.37 35.59c-2.31,3.86 -0.9,2.35 -3.65,6.68l-23.82 34.7c-0.4,0.66 -0.82,1.59 -1.19,2.25l-49.45 71.06c-0.39,0.64 -0.86,1.54 -1.27,2.17l-12.5 18.48c-0.4,0.64 -0.87,1.54 -1.28,2.17 -0.4,0.62 -0.95,1.47 -1.37,2.07l-36.36 53.14c-0.4,0.66 -0.86,1.56 -1.23,2.24 -0.37,0.68 -0.78,1.6 -1.13,2.31l-23.25 38.72c-0.87,1.27 -6.45,8.28 -7.43,9.78 -0.4,0.64 -0.88,1.53 -1.27,2.17 -12.92,21.14 -22.8,30.87 -31.12,48.07l-40.16 66.55c-0.4,0.64 -0.87,1.55 -1.28,2.17 -0.4,0.62 -0.95,1.47 -1.37,2.07l-59.19 99.18c-2.92,4.94 -0.63,1.31 -4.23,6.1l-101.47 170.52c-0.35,0.71 -0.78,1.6 -1.11,2.33l-75.74 130.82c-0.47,0.96 -1.81,3.68 -2.28,4.62 -0.36,0.69 -0.8,1.59 -1.14,2.29l-16.43 31.78c-0.1,0.15 -3.3,3.86 -4.66,5.68l-14.47 26.85c-0.35,0.71 -0.78,1.6 -1.12,2.32l-64.32 114.72c-0.35,0.7 -0.79,1.59 -1.13,2.3 -0.47,0.95 -1.82,3.67 -2.28,4.61l-42.43 78.06c-0.35,0.72 -0.76,1.63 -1.11,2.34 -0.36,0.71 -0.76,1.63 -1.11,2.34l-57.64 100.73c-0.36,0.69 -0.76,1.62 -1.11,2.33l-70.26 132.86c-0.1,0.16 -3.3,3.87 -4.66,5.68 -13.44,17.89 10.02,-15.89 -2.92,3.97l-4.78 8.98c-0.36,0.71 -0.77,1.62 -1.11,2.34l-9.13 18.42c-1.34,2.67 -2.47,4.95 -3.44,6.88l-37.87 68.86c-1.21,2.43 -2.6,5.24 -3.42,6.91l-50.42 87.3c-0.41,0.62 -0.92,1.49 -1.31,2.13 -0.4,0.65 -0.85,1.56 -1.21,2.23 -0.51,0.92 -1.79,3.69 -2.27,4.63 -0.35,0.7 -0.76,1.61 -1.1,2.33 -0.35,0.71 -0.78,1.61 -1.12,2.33 -0.34,0.7 -0.78,1.6 -1.12,2.31 -1.26,2.57 -2.56,5.2 -3.41,6.93 -0.35,0.7 -0.78,1.6 -1.12,2.32 -0.35,0.71 -0.75,1.62 -1.1,2.34 -0.36,0.71 -0.76,1.63 -1.11,2.33l-30.39 48.8c-3.58,4.77 -1.33,1.21 -4.23,6.09l-46.8 80.59c-0.4,0.63 -0.88,1.53 -1.28,2.17l-2.42 4.45c-0.4,0.64 -0.87,1.55 -1.28,2.17l-34.42 55.09c-0.4,0.62 -0.95,1.47 -1.37,2.07l-61.83 89.67c-9.32,13.41 -23.91,22.71 -37.19,31.66 -2.38,1.6 -7.18,5.38 -9.91,7.3 -13.51,9.49 -4.83,-6.16 -11.15,9.51l-27.54 0c-3.24,-8.96 -8.19,-10.58 -15.98,-15l-47.69 -76.27 -5.42 -35.89c-2.36,-17.86 -6.43,-13.02 -6.52,-38.23 -0.06,-17.98 -3.71,-15.91 -6.33,-28.1 -4.52,-20.97 3.82,-45.31 -3.07,-65.79 -9.88,-29.31 3.01,-81.85 -7.94,-112.56 -6.57,-18.44 -3.43,-45.13 -3.43,-65.42 0,-26.89 2.93,-73.3 -4.5,-95.35 -1.15,-3.43 -0.81,1.59 -2.23,-8.11 -6.28,-42.89 6.06,-141.88 -0.33,-185.59 -3.49,-23.84 -6.89,-5.55 -6.73,-51.8 0.11,-32.57 4.03,-177.13 -0.68,-199.01 -4.2,-19.49 -2.51,5.99 -6.03,-18.06 -6.34,-43.37 5.91,-246.71 -0.85,-278.04 -2.27,-10.47 -1.63,-4.42 -2.76,-7.56 -14.93,-41.83 6.43,-291.71 -5.84,-328.13 -2.45,-7.29 -2.88,3.94 -4.61,-16.05 -5.39,-61.72 9.79,-263.47 -4.37,-305.5 -0.28,-0.82 -0.7,-1.63 -0.95,-2.48 -7.18,-25.24 0.92,-239.01 -1.18,-288.03 -0.16,-3.69 -0.16,-5.79 -0.94,-9.39 -2.34,-10.83 -6.27,-14.2 -6.45,-27.97 -0.62,-44.93 6.8,-204 -4.24,-236.77 -0.28,-0.83 -0.71,-1.64 -0.96,-2.5 -8.54,-30.02 5.81,-164.19 -2.12,-201 -2.31,-10.73 -6.49,-18.12 -6.33,-34.99 0.14,-14.97 0.12,-29.91 0.12,-44.88 0,-26.86 2.91,-73.4 -4.49,-95.36l-2.42 -32.01c0.13,-14.91 0.03,-29.86 0.03,-44.79 0,-21.03 3.43,-46.13 -3.44,-65.42 -0.29,-0.79 -0.78,-1.58 -1.05,-2.39 -9.97,-29.63 1.67,-75.24 -2.55,-104.17l-4.34 -12.88c-0.28,-0.83 -0.7,-1.64 -0.94,-2.5 -2.08,-7.3 -1.65,-14.49 -1.57,-22.53 0.2,-20.95 3.02,-44.5 -0.04,-65.38 -4.01,-27.43 -6.73,3.16 -6.52,-62.34 0.04,-15.02 -5.96,-23.29 -7.21,-37.55 -2.07,-23.68 3.31,-48.57 -4.37,-71.38 -4.63,-13.76 0.23,-35.38 -4.79,-50.3 -8.94,-26.57 -0.61,-40.74 -5.93,-59.48l-5.44 -18.65c-0.53,-6.95 0.74,-12.81 -0.71,-19.95 -4.02,-19.84 -2.61,6.3 -5.99,-18.11 -2.22,-15.97 -0.4,-27.2 -4.67,-40.09l-5.83 -38.94c-1.06,-3.1 -0.51,2.94 -2.64,-7.68l-11.09 -61.22c-0.27,-0.82 -0.72,-1.62 -0.98,-2.45l-11.88 -50.09c-0.02,-0.08 -1.89,-4.9 -1.92,-4.98 -2.54,-8.36 -1.81,-11.47 -4.05,-20.04 -0.23,-0.9 -0.56,-1.76 -0.83,-2.61 -0.32,-1.09 -1.51,-3.96 -1.87,-5.01 -0.64,-1.89 -1.48,-4.3 -2.6,-7.73l-4.38 -12.83c-6.41,-18.67 -8.8,-37.62 -17.51,-54.8l-10.03 -27.84c-0.29,-0.84 -0.61,-1.72 -0.89,-2.55 -0.28,-0.86 -0.55,-1.76 -0.83,-2.62l-37.63 -93.2c-0.3,-0.79 -0.66,-1.68 -0.99,-2.45 -0.31,-0.76 -0.74,-1.63 -1.07,-2.37l-4.7 -9.08c-0.36,-0.69 -0.81,-1.58 -1.16,-2.28l-19.53 -39.01c-0.47,-0.95 -1.82,-3.64 -2.29,-4.58l-59.87 -105.4c-0.4,-0.62 -0.95,-1.47 -1.36,-2.08l-6.07 -7.71c-0.41,-0.6 -0.96,-1.46 -1.36,-2.07 -0.41,-0.62 -0.88,-1.53 -1.28,-2.17 -1.61,-2.63 -0.82,-1.82 -2.43,-4.45l-22.47 -32.62c-15.15,-22.13 -28.71,-41.75 -47,-59.72l-23.87 -31.22c-17.88,-17.61 -60.57,-66.23 -79.97,-78.39l-13.09 -7.58c-5.19,-4.02 -2.64,-2.37 -5.32,-5 -0.3,-0.3 -3.84,-4.07 -5.02,-5.31l-24.64 -20.11c-5.32,-3.12 -1.21,0.01 -6.3,-4.03 -6.61,-5.27 -5.61,-6.94 -12.37,-11.73l-65.11 -45.05c-4.32,-3.26 -2.33,-2.19 -5.85,-4.48l-142.29 -71.16c-0.68,-0.35 -1.55,-0.83 -2.25,-1.18 -0.69,-0.37 -1.57,-0.83 -2.27,-1.18l-39.22 -15.85c-0.84,-0.29 -1.73,-0.62 -2.56,-0.9l-31.6 -13.14c-0.85,-0.29 -1.75,-0.57 -2.63,-0.82 -7.21,-1.98 -10.2,-1.1 -17.63,-3.02l-28.06 -9.8c-0.87,-0.27 -1.73,-0.58 -2.62,-0.83l-38.05 -10.15c-0.81,-0.29 -1.67,-0.66 -2.49,-0.96l-16.53 -4.11c-18.52,-1.84 -12.21,-4.58 -34.43,-6.88l-37.57 -7.2c-29.29,-0.91 -20.3,-2.04 -38.72,-6.01 -13.81,-2.98 -39.36,1.18 -52,-3.08l-28.97 -4.49 -199.65 0c-4.45,0.39 -7.83,0.87 -9.87,1.45 -23.53,6.69 -29.63,3.28 -53.22,5.31 -23.62,2.04 -15.82,7.13 -37.73,7.01 -8.07,-0.04 -11.68,-0.65 -19.21,1.44 -0.86,0.25 -1.67,0.67 -2.5,0.95l-135.69 29.56c-4.78,1.45 -1.68,0.77 -8.26,2.07 -3.64,0.74 -4.9,0.41 -8.98,1.35l-224.7 74.81c-4.91,1.5 -2.52,0.35 -7.92,2.4l-11.51 5.71c-0.7,0.36 -1.55,0.85 -2.27,1.18 -0.72,0.34 -1.6,0.77 -2.35,1.09 -0.77,0.32 -1.66,0.69 -2.45,0.99l-18.33 5.78c-0.76,0.32 -1.63,0.75 -2.37,1.08l-11.34 5.87c-0.68,0.36 -1.57,0.82 -2.27,1.17 -0.69,0.36 -1.57,0.82 -2.27,1.17l-45.96 19.45c-0.69,0.36 -1.59,0.8 -2.29,1.15 -2.63,1.33 -4.94,2.47 -6.89,3.44l-6.88 3.45c-2.67,1.34 -4.93,2.46 -6.88,3.44l-18.37 9.18c-0.94,0.47 -3.64,1.83 -4.59,2.3l-204.32 115.84c-0.03,0.02 -4.43,2.42 -4.45,2.43l-107.67 78.25c-8.84,6.16 -13.3,15.15 -23.32,21.44l-13.08 7.56c-14.29,11.09 -20.71,21.3 -37.22,31.65 -15.68,9.85 -23.65,26.77 -39.2,36.53 -5.15,3.23 -3.85,1.56 -8.98,4.79 -21.82,13.69 -42.17,45.24 -68.85,61.98 -0.64,0.4 -1.52,0.9 -2.12,1.32 -16.5,11.46 -28.95,28.38 -43.33,42.75 -8.46,8.47 -14.73,14.77 -22.36,22.4 -3.38,3.38 -7,6.96 -10.31,10.34 -1.09,1.11 -2.68,2.85 -5.06,5.27l-32.87 25.66c-7.59,7.78 -13.83,13.97 -22.32,22.45l-127.5 127.25c-7.7,7.59 0.1,-1.83 -6.76,7.01l-86.06 92.96c-8.04,8.05 -12.54,12.68 -20.68,20.63 -1.67,1.64 -5.18,4.91 -5.3,5.03l-92.75 106.94c-2.34,2.28 -4.66,4.55 -6.93,6.83 -14.4,14.32 -32.18,29.34 -42.49,47.02 -3.06,5.25 -0.08,1.28 -4,6.32l-10.3 10.36c-3.86,3.76 -3.27,3.21 -6.91,6.85l-102.72 121.07c-6.58,11.3 -17.14,19.61 -26.42,28.67l-68.9 82.57c-0.65,0.77 -2.49,3 -3.07,3.83l-22.78 28.85c-1.67,1.79 -4.17,4.73 -4.76,5.58l-6.1 11.11c-7.52,11.98 -18.26,19.65 -27.54,34.42 -7.19,11.44 -17.52,16.62 -23.98,27.67l-4.89 8.87c-4.78,6.76 -6.46,5.76 -11.73,12.37 -4.04,5.07 -0.91,0.99 -4.03,6.3 -7.04,12.01 -17.33,19.06 -25,30.09l-2.53 4.35c-7.27,12.42 -10.89,10.91 -20.66,27.53 -0.82,1.41 -1.52,3.14 -2.34,4.55 -6.46,11.04 -16.79,16.21 -23.98,27.66 -2.81,4.47 -1.27,2.83 -3.57,6.77l-38.96 50.54c-2.31,3.93 -0.76,2.3 -3.56,6.76 -6.29,10 -14.93,13.98 -21.44,23.33l-55.35 75.48c-7.84,8.07 -7,13.45 -18.79,25.96 -3.95,4.18 -9.44,8.5 -12.29,11.8l-7.95 12.7c-3.12,5.32 0.01,1.23 -4.03,6.3l-79.81 106.1c-6.91,10.86 4.77,-5.43 -2.81,4.07l-38.51 51.01c-3.21,5.05 -5.48,6.51 -9.7,10.96 -1.75,1.85 -4.14,4.52 -4.83,5.49l-14.06 20.37c-2.37,2.44 -0.92,-0.07 -5.11,5.21l-19.03 25.73c-0.66,0.76 -2.52,2.95 -3.1,3.78l-10.57 16.99c-3.97,4.49 -7,5.73 -11.42,12.68 -2.89,4.53 -1.21,2.76 -3.57,6.76 -3.11,5.3 0.01,1.21 -4.03,6.29l-15.45 18.98c-10.04,17.56 -26.35,32.62 -37.59,48.48l-118.28 160.59c-2.76,4.33 -1.34,2.82 -3.64,6.68l-100.45 137.12c-7.67,9.64 -2.57,0.78 -10.24,10.41l-19.03 25.74c-0.88,0.99 -3.29,4.08 -4.44,5.88l-39.31 57.09c-0.4,0.62 -0.95,1.47 -1.37,2.07 -0.11,0.18 -3.24,3.91 -4.57,5.75l-28.38 40.48c-0.4,0.62 -0.91,1.51 -1.34,2.11l-15.76 18.66c-0.4,0.65 -0.81,1.59 -1.19,2.26l-88.32 121.68c-0.39,0.66 -0.81,1.59 -1.18,2.27l-9.88 14.21c-0.42,0.6 -0.97,1.45 -1.37,2.07l-33.07 46.12c-0.41,0.61 -0.96,1.46 -1.36,2.07 -0.41,0.63 -0.88,1.54 -1.28,2.18 -2.37,3.96 -0.76,2.25 -3.61,6.71l-53.91 73.47c-0.4,0.64 -0.87,1.54 -1.27,2.17l-129.54 183.75c-0.4,0.64 -0.87,1.54 -1.28,2.17l-16.48 24.83c-4.18,5.23 -2.79,2.79 -5.14,5.21l-24.06 34.46c-0.4,0.65 -0.8,1.59 -1.19,2.26 -0.39,0.64 -0.83,1.57 -1.24,2.21l-34.52 48.1c-0.4,0.62 -0.95,1.47 -1.36,2.08 -0.58,0.84 -2.44,3.04 -3.03,3.85l-26.39 35.59c-0.39,0.66 -0.8,1.6 -1.18,2.26l-3.83 6.5c-0.11,0.15 -5.95,7.54 -6.06,7.71l-15.14 22.74c-0.41,0.62 -0.88,1.53 -1.27,2.17 -0.4,0.65 -0.82,1.57 -1.21,2.23l-126.33 183.53c-3.25,5.04 -5.48,6.51 -9.7,10.95l-6.18 7.61c-0.41,0.63 -0.84,1.56 -1.23,2.22 -0.4,0.64 -0.81,1.59 -1.19,2.25l-12.53 18.46c-0.4,0.65 -0.83,1.58 -1.21,2.23l-25.05 36.92c-0.41,0.63 -0.88,1.53 -1.27,2.17l-64.4 93.97c-0.4,0.64 -0.87,1.55 -1.28,2.17l-56.45 84.7c-0.42,0.59 -1.06,1.38 -1.48,1.96l-8.41 12.25c-0.39,0.66 -0.8,1.6 -1.19,2.26l-48.25 68.81c-0.39,0.64 -0.86,1.54 -1.27,2.16l-25.06 36.92c-0.39,0.65 -0.81,1.58 -1.2,2.23 -0.4,0.64 -0.87,1.55 -1.28,2.17l-11.28 16.26c-0.39,0.65 -0.82,1.58 -1.21,2.23 -0.4,0.64 -0.87,1.55 -1.28,2.17l-8.79 11.85c-0.41,0.63 -0.88,1.54 -1.28,2.17l-2.43 4.45c-0.4,0.64 -0.87,1.55 -1.28,2.17l-37.6 55.34c-2.34,3.83 -0.98,2.4 -3.71,6.63 -1.44,2.24 -3.1,3.9 -5.95,7.83l-2.85 4.03c-0.4,0.63 -0.88,1.53 -1.28,2.17 -2.32,3.82 -0.96,2.39 -3.7,6.63l-76.28 113.07c-0.42,0.6 -0.97,1.45 -1.37,2.07l-7.82 12.84c-1.36,1.88 -4.42,5.51 -4.58,5.74 -0.41,0.61 -0.96,1.46 -1.37,2.08l-17.47 27.28c-0.39,0.64 -0.87,1.55 -1.28,2.17l-26.27 39.14c-0.4,0.64 -0.87,1.54 -1.28,2.18l-26.27 39.14c-0.39,0.64 -0.86,1.54 -1.27,2.16l-36.34 53.18c-0.4,0.62 -0.88,1.53 -1.27,2.17l-20.33 31.32c-1.42,1.92 -4.49,5.48 -4.63,5.69l-21.97 36.56c-0.4,0.63 -0.88,1.54 -1.27,2.17l-11.14 16.42c-0.41,0.6 -0.96,1.45 -1.36,2.07l-13.78 20.66c-0.4,0.62 -0.88,1.52 -1.27,2.16l-2.43 4.46c-0.39,0.64 -0.86,1.53 -1.27,2.16l-13.77 20.65c-0.4,0.63 -0.96,1.47 -1.37,2.08l-6.06 7.71c-0.42,0.6 -0.97,1.46 -1.37,2.07 -0.41,0.63 -0.88,1.53 -1.27,2.17l-110.12 172.19c-2.39,4.75 -1.2,2.9 -3.65,6.68l-8.89 11.77c-2.76,4.26 -1.36,2.79 -3.7,6.63l-11.34 16.19c-0.4,0.65 -0.82,1.58 -1.21,2.23l-9.91 14.19c-0.42,0.6 -0.97,1.46 -1.37,2.07l-17.52 27.24c-0.37,0.7 -0.76,1.63 -1.1,2.35 -0.35,0.72 -0.74,1.64 -1.08,2.37l-52.72 84.98c-13.4,22.69 -32.18,42.39 -43.67,66.5l-29.89 45.85c-0.53,0.89 -1.88,3.59 -2.36,4.53l-120.18 193.11c-0.41,0.63 -0.88,1.53 -1.27,2.17l-53.81 87.35c-0.41,0.62 -0.88,1.52 -1.28,2.16l-41.25 68.91c-0.48,0.94 -1.83,3.65 -2.36,4.54l-7.38 9.83c-3.59,4.81 -1.3,1.17 -4.22,6.1l-20.53 34.56c-0.86,1.42 -1.56,3.04 -2.42,4.46l-27.91 44.39c-3.6,4.81 -1.3,1.17 -4.22,6.1l-24.11 41.32c-0.35,0.72 -0.72,1.64 -1.07,2.36 -0.35,0.72 -0.74,1.64 -1.08,2.37 -0.46,0.95 -1.74,3.74 -2.24,4.66l-17.33 27.41c-0.35,0.72 -0.74,1.64 -1.08,2.36 -0.47,0.95 -1.74,3.74 -2.24,4.66 -2.99,5.51 -2.03,3.79 -5.44,8.33 -1.35,1.81 -4.56,5.53 -4.66,5.68l-27.9 47.84c-0.35,0.72 -0.74,1.64 -1.08,2.36l-87.37 146.74c-0.47,0.95 -1.78,3.71 -2.24,4.66 -0.85,1.75 -2.14,4.35 -3.4,6.93 -0.35,0.7 -0.79,1.59 -1.13,2.31l-21.83 36.69c-0.35,0.72 -0.74,1.64 -1.08,2.37l-20.75 34.33c-0.35,0.71 -0.79,1.6 -1.12,2.32l-32.48 57.03c-0.09,0.13 -3.31,3.87 -4.66,5.68l-7.71 12.96c-0.35,0.71 -0.76,1.62 -1.1,2.34l-7.89 16.21c-0.35,0.7 -0.75,1.63 -1.1,2.34l-19.66 31.96c-0.82,1.68 -2.22,4.49 -3.42,6.91l-36.66 66.62c-0.35,0.71 -0.76,1.63 -1.11,2.34 -0.36,0.7 -0.76,1.63 -1.11,2.34l-57.51 100.85c-0.35,0.7 -0.8,1.59 -1.14,2.3l-61.25 110.9c-3.57,4.77 -1.32,1.21 -4.22,6.09l-77.98 149.27c-0.35,0.7 -0.79,1.59 -1.14,2.29l-2.3 4.59c-0.35,0.7 -0.8,1.59 -1.14,2.31l-26.42 45.87c-0.82,1.67 -2.22,4.48 -3.42,6.91l-36.72 73.44c-0.35,0.71 -0.8,1.6 -1.14,2.31 -0.48,0.94 -1.83,3.64 -2.3,4.58l-22.95 45.91c-0.36,0.7 -0.8,1.59 -1.15,2.3l-13.76 27.54c-0.36,0.7 -0.8,1.59 -1.15,2.29 -0.47,0.95 -1.83,3.65 -2.3,4.59l-3.44 6.89c-0.36,0.69 -0.8,1.59 -1.14,2.3 -0.47,0.94 -1.83,3.64 -2.3,4.59l-59.67 126.24c-0.35,0.69 -0.8,1.58 -1.14,2.29 -0.36,0.7 -0.8,1.59 -1.15,2.3 -0.35,0.7 -0.8,1.59 -1.14,2.3l-4.59 9.18c-0.36,0.69 -0.8,1.59 -1.15,2.3 -0.35,0.7 -0.79,1.59 -1.14,2.3l-6.89 13.76c-0.35,0.71 -0.79,1.59 -1.14,2.31l-5.73 11.47c-0.36,0.7 -0.8,1.59 -1.15,2.29l-24.53 51.22c-1.12,3.63 -0.88,4.13 -2.23,8.11l-31.4 64.98c-0.29,0.86 -0.52,1.79 -0.8,2.66 -1.82,5.84 -0.91,4.78 -3.11,10.66 -0.29,0.79 -0.66,1.69 -0.98,2.45l-35.66 77.97c-0.59,1.15 -4.41,8.43 -4.71,9.07l-5.17 15.48c-0.28,0.87 -0.51,1.81 -0.79,2.66 -0.29,0.83 -0.59,1.74 -0.89,2.55l-5.58 11.63c-0.36,0.68 -0.83,1.57 -1.18,2.27l-40.26 94c-0.35,0.7 -0.85,1.55 -1.17,2.27 -0.34,0.72 -0.78,1.6 -1.09,2.35 -0.33,0.77 -0.69,1.66 -0.99,2.46l-8.07 22.92c-0.83,1.66 -3.55,6.55 -3.62,6.71l-12.6 32.16c-0.35,0.69 -0.84,1.55 -1.17,2.27l-13.77 34.42c-0.34,0.74 -0.78,1.6 -1.09,2.35l-43.06 115.32c-1.09,3.36 -1.3,4.81 -2.33,7.98l-58.75 168.49c-0.29,0.83 -0.62,1.72 -0.9,2.54l-11.95 36.25c-0.29,0.82 -0.63,1.69 -0.92,2.51l-21.55 71.41c-1.32,3.92 -1.98,6.57 -3.31,10.46 -0.29,0.82 -0.65,1.69 -0.93,2.51l-3.87 13.34c-0.72,3.69 -0.4,4.89 -1.34,8.99 -0.22,0.95 -0.45,1.84 -0.7,2.75l-24.97 95.53c-0.95,4.07 -0.62,5.34 -1.35,8.98l-19.88 83.41c-1.16,8.13 0.39,10.19 -1.88,18.78 -0.22,0.88 -0.64,1.68 -0.91,2.53l-7.92 36.83c-5.02,14.68 -2.94,28.82 -7.92,43.73l-2.3 32.14c-1.55,20.26 -2.1,8.7 -4.58,16.07 -5.63,16.71 0.15,42.79 -5.84,59.57 -1.77,4.94 -2.82,10.47 -3.44,16.32l0 48.15 0 0.95 0 1.4 0 1.4 0 1.4 0 1.4 0 1.4 0 1.4 0 1.4 0 1.4 0 1.4 0 1.4 0 1.4 0 1.4 0 1.4 0 1.4 0 1.4 0 1.4 0 1.4 0 1.4 0 1.4 0 1.4 0 1.4 0 1.4 0 1.4 0 1.4 0 1.4 0 1.4 0 1.4 0 1.4 0 1.4 0 1.4 0 1.4 0 1.41 0 1.4 0 1.4 0 1.4 0 1.4 0 1.4 0 1.4 0 1.4 0 1.4 0 1.4 0 1.4 0 1.4 0 1.4 0 1.4 0 1.4 0 1.4 0 1.4 0 1.4 0 1.4 0 1.4 0 1.4 0 1.4 0 1.4 0 1.4 0 1.4 0 1.4 0 1.4 0 1.4 0 1.4 0 1.4 0 1.4 0 1.4 0 1.39 0 0.7 0 0.7 0 0.7 0 0.69 0 0.7 0 0.7 0 0.7 0 0.69 0 0.7 0 0.7 0 0.69 0 0.7 0 0.7 0 0.7 0 0.69 0 0.7 0 0.7 0 0.69 0 0.7 0 0.69 0 0.71 0 0.69 0 0.7 0 0.69 0 0.7 0 0.7 0 35.16c0.89,18.85 5.66,16.55 6.7,50.08l4.65 19.46c3.39,10.57 1.4,6.84 2.55,18.11 1.87,18.25 8.62,36.77 14.43,54.42l3.58 10.2c0.28,0.82 0.62,1.7 0.9,2.54l5.06 15.59c0.29,0.82 0.64,1.69 0.92,2.53l17.44 41.08c0.36,0.7 0.8,1.58 1.16,2.3 0.06,0.12 2.23,4.45 2.29,4.58 0.98,1.95 2.1,4.21 3.44,6.88l62.65 92.28c13.4,13.21 10.36,20.64 27.92,30.61 13.55,7.69 21.34,22.39 34.6,30.82 4.39,2.78 2.84,1.28 6.71,3.6 0.65,0.4 1.56,0.87 2.18,1.28l18.44 12.55c0.71,0.36 1.63,0.75 2.35,1.08 17.18,8.32 22.09,13.67 41.25,20.72l7.09 3.24c1.25,0.61 3.2,1.84 4.44,2.45l77.88 21.96c0.83,0.27 1.63,0.71 2.45,0.99l10.57 3.21c15.02,2.13 30.86,-1.29 44.58,3.61 0.8,0.28 1.59,0.78 2.4,1.05 2.84,0.95 14.68,1.76 31.45,2.39l181.56 0 1.31 -0.16c24.06,-3.52 -1.42,-1.84 18.07,-6.04 11.18,-2.41 28.97,0.47 40.75,-0.55 23.63,-2.04 15.82,-7.13 37.74,-7.01l56.1 -9.3c0.83,-0.27 1.61,-0.77 2.42,-1.03l84.44 -18.84c0.89,-0.25 1.73,-0.6 2.58,-0.87l110.12 -34.47c0.83,-0.28 1.7,-0.63 2.53,-0.92 0.82,-0.29 1.69,-0.63 2.52,-0.92l54.98 -20.74c0.13,-0.07 6.23,-3.23 6.81,-3.53 0.7,-0.35 1.58,-0.82 2.27,-1.17l105.13 -56.67c0.6,-0.42 1.39,-1.05 1.97,-1.48l44.25 -31.49c16.5,-10.35 82.69,-78.49 93.08,-96.27 7.91,-13.57 19.36,-21.64 28.87,-36.56 2.16,-3.4 1.39,-1.89 4.39,-5.94l35.64 -53.86c0.4,-0.64 0.87,-1.54 1.28,-2.17l13.64 -20.79c0.01,-0.02 2.15,-4.7 2.16,-4.72 1.3,-2.67 3.1,-6.48 4.76,-9.01l23.99 -41.42c1.2,-2.44 2.6,-5.24 3.42,-6.91l41.34 -75.72c0.47,-0.94 1.83,-3.65 2.3,-4.59l21.86 -43.56c0.35,-0.68 0.84,-1.55 1.18,-2.25l5.29 -11.93c0.29,-0.85 0.51,-1.79 0.79,-2.65l5.18 -15.48c0.06,-0.13 3.22,-6.23 3.52,-6.81l10.38 -20.6c0.35,-0.71 0.8,-1.59 1.14,-2.3l12.65 -25.22c0.36,-0.7 0.83,-1.58 1.18,-2.28l20.59 -48.26c1.41,-2.79 2.37,-4.74 3.45,-6.87l10.75 -23.68c1.13,-3.63 0.9,-4.13 2.23,-8.11 0.29,-0.83 0.59,-1.75 0.89,-2.55 0.3,-0.8 0.66,-1.68 0.99,-2.46 0.31,-0.75 0.75,-1.62 1.07,-2.37l11.74 -22.67c0.45,-0.98 1.68,-3.8 2.07,-4.83l11.55 -29.76c0.36,-0.69 0.81,-1.59 1.17,-2.28l12.73 -32.03c0.39,-1.03 1.63,-3.84 2.07,-4.8l68.86 -165.26c2.05,-5.42 0.9,-3.02 2.4,-7.94l38.92 -95.35c0.31,-0.81 0.6,-1.73 0.89,-2.55l5.99 -18.11c0.34,-0.71 0.83,-1.56 1.17,-2.26 0.83,-1.67 3.56,-6.56 3.62,-6.71l29.63 -73.67c0.31,-0.8 0.61,-1.72 0.89,-2.55l25.67 -63.85c0.33,-0.77 0.68,-1.66 0.99,-2.46l73.65 -188c0.31,-0.79 0.66,-1.69 0.99,-2.46l19.67 -45.75c0.45,-0.96 1.69,-3.77 2.08,-4.79l4.8 -15.87c0.29,-0.79 0.65,-1.68 0.98,-2.46l20.67 -48.19c0.32,-0.75 0.75,-1.62 1.08,-2.35l43.71 -104.34c1.5,-4.91 0.35,-2.52 2.4,-7.92 0.3,-0.79 0.66,-1.69 0.99,-2.46 0.32,-0.75 0.76,-1.61 1.09,-2.35l7.78 -16.31c0.3,-0.86 0.52,-1.8 0.79,-2.65 1.14,-3.61 0.9,-4.13 2.24,-8.11l14.69 -30.06c2.86,-6.31 0.42,0.09 2.95,-7.39 1.33,-3.96 1.09,-4.47 2.23,-8.1l3.74 -10.05c0.04,-0.1 3.23,-6.23 3.52,-6.79l7.06 -13.6c0.35,-0.7 0.83,-1.56 1.15,-2.3l28.5 -71.34c0.32,-0.75 0.75,-1.61 1.09,-2.35l11.68 -29.63c0.3,-0.8 0.67,-1.69 0.99,-2.46l21.73 -50.58c0.28,-0.63 4.09,-7.91 4.7,-9.07 0.36,-0.68 0.82,-1.57 1.17,-2.28 0.36,-0.68 0.81,-1.57 1.16,-2.27 0.36,-0.69 0.83,-1.57 1.18,-2.27l6.47 -14.18c1.59,-4.73 1.42,-6.03 3.01,-10.76 2.52,-7.47 0.08,-1.08 2.95,-7.38l20.65 -48.2c0.33,-0.72 0.81,-1.59 1.15,-2.3l19.53 -38.99c1.96,-5.25 0.92,-3.07 2.4,-7.93l10.33 -24.1c0.36,-0.69 0.82,-1.57 1.17,-2.27 0.36,-0.69 0.82,-1.58 1.17,-2.27l2.38 -4.51c0.34,-0.71 0.81,-1.57 1.14,-2.3 0.34,-0.74 0.77,-1.61 1.07,-2.37l6.77 -20.78c0.31,-0.76 0.74,-1.63 1.07,-2.37l9.32 -18.23c0.35,-0.69 0.79,-1.59 1.14,-2.29l7.01 -13.65c0.35,-0.7 0.83,-1.57 1.15,-2.29l2.06 -4.83c0.3,-0.81 0.6,-1.73 0.89,-2.55l3.9 -13.31c0.3,-0.8 0.65,-1.68 0.98,-2.46l10.39 -20.59c0.35,-0.7 0.8,-1.59 1.14,-2.3l10.23 -20.75c0.31,-0.81 0.6,-1.73 0.89,-2.55l3.91 -13.32c0.29,-0.79 0.66,-1.68 0.98,-2.45l13.84 -27.47c0.36,-0.69 0.81,-1.58 1.16,-2.29l6.76 -13.89c0.3,-0.81 0.61,-1.73 0.89,-2.55l4.88 -15.77c0.33,-0.76 0.75,-1.63 1.08,-2.37l9.31 -18.22c0.36,-0.7 0.8,-1.59 1.15,-2.3l5.83 -11.38c0.36,-0.69 0.85,-1.55 1.18,-2.26l3.22 -7.12c0.31,-0.81 0.6,-1.73 0.88,-2.55l133.48 -293.44c0.35,-0.71 0.8,-1.6 1.15,-2.3l42.46 -91.81c0.36,-0.69 0.82,-1.58 1.16,-2.29 0.36,-0.68 0.82,-1.56 1.17,-2.27 0.48,-0.93 1.92,-3.56 2.38,-4.51l3.22 -7.12c0.3,-0.81 0.59,-1.73 0.88,-2.55l10.67 -27.21c0.36,-0.69 0.8,-1.59 1.15,-2.28l9.19 -18.36c0.48,-0.94 1.84,-3.65 2.31,-4.59 0.35,-0.7 0.79,-1.59 1.14,-2.3l12.62 -25.25c0.35,-0.7 0.8,-1.59 1.14,-2.3l15.98 -32.23c0.3,-0.81 0.6,-1.73 0.89,-2.55l16.42 -38.66c0.36,-0.7 0.8,-1.59 1.15,-2.3l71.15 -149.19c1.41,-2.84 0.88,-1.77 2.3,-4.59l14.92 -29.84c0.36,-0.69 0.8,-1.59 1.14,-2.3l47.41 -100.63c0.29,-0.83 0.58,-1.75 0.89,-2.55l30.89 -62.07c1.33,-2.68 2.46,-4.94 3.43,-6.89 0.36,-0.7 0.81,-1.59 1.15,-2.3l18.36 -36.72c0.35,-0.7 0.8,-1.59 1.14,-2.3l12.63 -25.25c0.36,-0.7 0.8,-1.6 1.15,-2.3 0.63,-1.28 1.65,-3.32 2.29,-4.59 1.32,-2.62 3.28,-6.54 4.59,-9.18l8.03 -16.07c0.35,-0.7 0.8,-1.59 1.14,-2.3 0.36,-0.7 0.8,-1.59 1.15,-2.29l51.64 -103.29c0.35,-0.7 0.8,-1.59 1.14,-2.3l18.37 -36.73c0.35,-0.69 0.8,-1.58 1.14,-2.29l5.74 -11.47c0.35,-0.7 0.8,-1.59 1.15,-2.3l17.21 -34.42c1.34,-2.68 2.46,-4.94 3.44,-6.89l22.95 -45.91c0.97,-1.95 2.1,-4.21 3.44,-6.88l24.09 -48.21c2.51,-5 -1.06,2.13 2.3,-4.59l21.81 -43.6c0.35,-0.7 0.8,-1.59 1.14,-2.3l87.23 -167.55c0.35,-0.7 0.79,-1.59 1.13,-2.3 0.36,-0.71 0.8,-1.6 1.15,-2.3l53.93 -107.88c0.36,-0.71 0.8,-1.59 1.15,-2.31l60.81 -114.76c0.35,-0.7 0.8,-1.59 1.14,-2.3l21.45 -37.09c0.42,-0.59 1,-1.41 1.4,-2.03l55.09 -103.28c0.41,-0.63 0.93,-1.49 1.32,-2.13l7.96 -16.13c0.35,-0.7 0.8,-1.59 1.14,-2.3l34.36 -68.92c0.39,-0.65 0.91,-1.51 1.31,-2.14l6.07 -7.7c3.58,-4.77 1.32,-1.21 4.23,-6.1l7.97 -16.12c0.35,-0.71 0.79,-1.59 1.14,-2.31l24.82 -47.47c11.41,-15.22 18.31,-31.87 26.82,-48.92 1.3,-2.62 3.27,-6.55 4.56,-9.22 0.35,-0.7 0.77,-1.61 1.12,-2.32 0.35,-0.71 0.76,-1.62 1.11,-2.33l29.92 -52.71c0.36,-0.69 0.8,-1.58 1.15,-2.3l100.98 -181.32c0.35,-0.7 0.8,-1.59 1.14,-2.31 0.35,-0.7 0.79,-1.59 1.14,-2.3l76.18 -133.84c3.57,-4.77 1.32,-1.23 4.23,-6.1l27.53 -48.2c0.22,-0.38 3.37,-6.65 3.47,-6.85l3.36 -6.97c0.47,-0.95 1.82,-3.67 2.28,-4.61 0.35,-0.71 0.79,-1.59 1.13,-2.32l2.23 -4.66c0.47,-0.94 1.75,-3.72 2.26,-4.62l20.79 -34.3c0.36,-0.7 0.8,-1.59 1.14,-2.31l40.17 -69.99c2.9,-3.78 2.5,-2.79 4.49,-5.83l128.71 -222.45c0.4,-0.61 0.99,-1.44 1.41,-2.04l43.32 -66.86c0.52,-0.89 1.88,-3.59 2.35,-4.52 0.36,-0.71 0.75,-1.63 1.09,-2.36l19.56 -32.08c0.36,-0.71 0.75,-1.63 1.09,-2.36 0.36,-0.71 0.75,-1.63 1.08,-2.35l18.49 -29.73c0.36,-0.7 0.75,-1.63 1.08,-2.35 0.36,-0.72 0.75,-1.64 1.08,-2.36l3.32 -7.01c2.99,-5.51 2.03,-3.78 5.44,-8.33 1.35,-1.81 4.56,-5.54 4.67,-5.67l9.41 -18.13c0.48,-0.94 1.83,-3.64 2.36,-4.53 2.92,-4.94 0.61,-1.31 4.22,-6.1 1.36,-1.8 4.56,-5.53 4.66,-5.67l6.17 -11.06c0.01,-0.01 2.15,-4.71 2.16,-4.73l76.56 -123.13c1.41,-1.93 4.48,-5.49 4.63,-5.69l93.17 -151.27c0.37,-0.68 0.83,-1.57 1.23,-2.23l39.14 -57.26c0.29,-0.49 3.34,-6.68 3.44,-6.88 0.63,-1.31 1.53,-3.43 2.15,-4.73 0.47,-0.95 1.75,-3.74 2.24,-4.66 0.37,-0.67 0.84,-1.56 1.21,-2.23l28.94 -43.36c1.44,-2.23 3.1,-3.89 5.95,-7.82l64.28 -97.55c0.41,-0.59 1.05,-1.37 1.48,-1.96 2.91,-3.95 4.75,-5.73 6.03,-7.73l138.88 -208.85c0.02,-0.02 2.42,-4.42 2.44,-4.45l12.53 -18.46c0.38,-0.66 0.79,-1.59 1.18,-2.26 0.39,-0.64 0.83,-1.57 1.23,-2.21l20.77 -27.44c0.4,-0.63 0.94,-1.48 1.37,-2.08l6.05 -7.72c0.42,-0.6 0.96,-1.45 1.36,-2.07l112.61 -159.38c3.98,-4.51 6.97,-5.73 11.43,-12.67 2.86,-4.46 1.24,-2.75 3.61,-6.71 0.39,-0.65 0.87,-1.54 1.27,-2.18l70.85 -94.4c2.89,-4.54 1.21,-2.76 3.57,-6.76l19.48 -25.27c0.38,-0.68 0.79,-1.61 1.17,-2.28l129.64 -166.44c17.27,-16.41 15.46,-22.84 29.26,-36.16 2.6,-2.52 3.68,-3.6 5.23,-5.1l54.91 -69.01c8.66,-10.07 19.6,-16.83 26.47,-28.62l14.88 -19.54c4.41,-4.3 6.95,-6.89 12.1,-12.01l21.21 -23.54c12.65,-21.66 33.36,-38.05 51.12,-55.62l30.85 -38c36.95,-36.41 100.96,-108.68 137.14,-131.4 20.1,-12.61 31.63,-35.6 50.86,-48.98l30.62 -24.47c0.93,-0.81 4.19,-3.29 5.93,-4.39 13.47,-8.44 23.56,-21.11 36.66,-28.76l40.13 -28.72c0.82,-0.6 3.01,-2.46 3.85,-3.03l82.21 -48.62c0.7,-0.35 1.59,-0.8 2.3,-1.14l100.87 -36.82 29.65 -1.35c0.86,-0.25 1.67,-0.67 2.49,-0.95l7.3 -3.06c21.15,-6.14 39.06,3.8 56.95,5.57l39.68 11.96c0.87,0.28 1.79,0.51 2.65,0.79 12.54,3.91 26.02,13.48 36.96,21.56l18.93 12.06c8.8,6.85 -0.51,-0.88 7.01,6.77l52.12 68.38c2.1,4.31 0.15,0.33 2.28,4.6 0.36,0.7 0.8,1.59 1.14,2.3 0.36,0.7 0.8,1.59 1.15,2.3l8.05 16.04c0.36,0.69 0.82,1.57 1.17,2.27l23.45 66.07c6.05,17.17 1.82,33.75 7.58,50.94 10.49,31.31 -0.59,57.57 5.19,84.35 2.62,12.2 6.47,18.64 6.27,38.49 -0.33,29.98 -4.16,76.87 4.42,102.3 6.97,20.72 2.39,48.27 2.39,69.91 0,22.49 -2.7,69.78 0.16,89.36l3.29 10.48c14.11,39.57 -7.37,173.52 6.88,213.46l3.56 27.43c-0.35,36.04 -5.33,210 3.32,234.25 12.14,34.03 -2.49,250.38 3.32,316.89 0.49,5.61 0.18,3.84 1.57,8.75l3.04 7.28c0.29,0.83 0.71,1.63 0.96,2.49 7.42,26.11 -4.82,396.05 2.12,428.25 4.69,21.73 6.26,22.56 6.2,52.32l-0.06 399.46c-0.32,29.17 3.29,24.65 6.27,38.5 9.02,41.87 -6.04,286.03 0.85,333.11 3.52,24.05 1.84,-1.42 6.04,18.07 10.62,49.32 -6.44,200.74 0.84,250.49 3.49,23.84 6.89,5.54 6.73,51.8 -0.12,34.42 -4.07,156.32 0.68,178.36 2.62,12.2 6.48,18.64 6.27,38.49 -0.36,33.05 -5.77,127.16 4.42,157.39 9.19,27.28 2.55,74.63 2.38,104.36 -0.23,38.06 6.97,42.81 6.9,82.61 -0.03,19.81 -2.73,42.09 0.16,61.82 3.89,26.59 7.1,-0.36 6.71,62.15 -0.04,6.39 -0.5,14.78 -0.23,20.9l4.74 19.35c5.1,15.15 0.35,26.75 2.56,42.2l5.21 15.46c2.41,9 0.58,13.1 2.33,21.78 4.06,20.34 1.19,-4.95 5.27,15.38l5.27 29.16c5.43,17.23 7.32,48.68 13.67,68.95l18.77 77.64c0.26,0.84 0.69,1.65 0.96,2.48l14.82 50.6c0.26,0.87 0.58,1.73 0.82,2.62 0.25,0.93 0.46,1.82 0.66,2.78l11.24 40.41c0.28,0.83 0.63,1.7 0.92,2.52 0.28,0.83 0.62,1.72 0.9,2.54l32.56 98.28c0.32,0.75 0.76,1.62 1.08,2.34l28.44 64.53c0.29,0.85 0.51,1.79 0.8,2.65l3.1 10.66c0.3,0.8 0.66,1.69 0.99,2.45l2.23 4.67c1.35,2.8 2.73,5.18 3.54,6.78 0.36,0.7 0.81,1.58 1.16,2.29 0.36,0.69 0.8,1.58 1.15,2.29l13.78 27.53c0.39,0.79 2.03,4.06 2.29,4.59l4.59 9.18c0.35,0.7 0.8,1.59 1.14,2.3 0.48,0.94 1.83,3.65 2.3,4.59l32.2 57.32c0.28,0.47 3.34,6.68 3.44,6.88 0.35,0.71 0.74,1.63 1.08,2.36l19.58 32.07c0.34,0.72 0.72,1.64 1.08,2.37l35.37 50.69c2.75,4.32 1.33,2.78 3.65,6.68 6.97,11.73 22.25,24.89 23.98,27.66 0.4,0.63 0.84,1.56 1.23,2.23l87.24 91.79c22.63,22.62 27.01,22.69 48.14,41.36l12.6 8.07c0.65,0.4 1.55,0.87 2.18,1.27l43.39 28.91c0.59,0.42 1.38,1.05 1.96,1.48 1.94,1.42 5.47,4.47 5.7,4.63l82.25 41.68c0.69,0.35 1.58,0.81 2.28,1.16 0.69,0.35 1.57,0.82 2.28,1.17 0.68,0.36 1.55,0.84 2.25,1.18l48.98 19.88c3.19,1.02 4.63,1.24 8,2.33l23.11 7.86c0.82,0.28 1.66,0.68 2.49,0.96l72.42 17.09c4.4,0.39 4.68,-0.16 9.51,0.81l44.51 10.58c9.12,3 10.29,2.66 21.58,2.51 31.22,-0.42 24.3,2.97 38.68,6.07l219.78 0.81c23.5,-2.04 15.63,-7.39 37.55,-7.19 6.53,0.05 14.75,0.68 21.09,0.43 3.68,-0.15 5.79,-0.15 9.39,-0.94 16.17,-3.48 0.69,-0.69 9.96,-3.81 13.51,-4.52 34.37,-2.4 48.23,-6.85 16.5,-5.29 49.02,-7.44 68.94,-13.68l52.57 -12.84c0.83,-0.27 1.64,-0.7 2.49,-0.96l93.9 -26.58c0.82,-0.29 1.69,-0.63 2.52,-0.92l36.27 -11.94c0.82,-0.28 1.69,-0.63 2.51,-0.92l59.75 -22.87c1.66,-0.83 6.56,-3.56 6.71,-3.62l9.99 -3.77c3.65,-1.14 4.09,-0.87 8.11,-2.23l14.06 -6.61c0.69,-0.35 1.54,-0.85 2.26,-1.17l52.9 -22.85c1.95,-0.98 4.21,-2.1 6.88,-3.44l112.45 -56.24c0.71,-0.36 1.59,-0.8 2.31,-1.15 0.69,-0.35 1.58,-0.8 2.29,-1.14l22.85 -11.57c0.62,-0.41 1.44,-0.99 2.04,-1.42l20.97 -13.47c0.7,-0.35 1.59,-0.77 2.32,-1.12l32.57 -19.06c0.6,-0.42 1.46,-0.97 2.07,-1.37l157.56 -104.1c6.61,-5.27 5.63,-6.95 12.37,-11.73l63.95 -46.22c12.08,-7.05 18.36,-18.46 29.89,-25.2l19.54 -14.88c8.87,-9.11 17.44,-19.88 28.66,-26.43 2.67,-1.56 1.86,-0.78 4.54,-2.35 11.08,-6.46 17.87,-15.48 27,-24.62l200.33 -199.03c2.73,-4.35 5.84,-7.47 9.54,-11.12l40.76 -41.88c0.4,-0.64 0.84,-1.56 1.21,-2.22l16.65 -21.22c21.02,-20.5 25.75,-32.91 36.03,-43.15 3.32,-3.31 7.32,-6.35 10.57,-10.1l9.17 -14.93c6.3,-10.02 15.28,-14.48 21.44,-23.32l2.54 -4.35c0.38,-0.66 0.79,-1.6 1.17,-2.27l34.42 -44.76c3.44,-3.28 7.15,-6.43 10.06,-10.61l24.39 -34.13c0.4,-0.66 0.82,-1.59 1.2,-2.25l53.88 -73.49c0.39,-0.66 0.81,-1.6 1.19,-2.25l10.07 -14.05c0.4,-0.63 0.88,-1.52 1.27,-2.16l12.5 -18.5c0.41,-0.63 0.88,-1.53 1.26,-2.18 2.39,-3.96 0.76,-2.25 3.63,-6.71l86.02 -123.98c0.39,-0.66 0.86,-1.55 1.21,-2.23 0.37,-0.68 0.79,-1.6 1.14,-2.31l20.6 -34.48c0.39,-0.64 0.87,-1.55 1.27,-2.17l12.55 -18.44c0.36,-0.7 0.76,-1.63 1.1,-2.35l19.51 -32.13c0.4,-0.64 0.87,-1.55 1.28,-2.17l8.88 -11.76c0.41,-0.63 0.93,-1.49 1.31,-2.14 0.4,-0.65 0.85,-1.55 1.23,-2.23l22.88 -39.09c0.35,-0.71 0.75,-1.63 1.08,-2.36l60.92 -100.91c0.47,-0.94 1.77,-3.7 2.23,-4.65 0.85,-1.75 2.15,-4.36 3.41,-6.93 0.34,-0.7 0.78,-1.6 1.13,-2.31 0.35,-0.71 0.77,-1.61 1.12,-2.33l5.88 -11.32c1.99,-3.05 1.6,-2.06 4.49,-5.83 2.89,-3.78 2.5,-2.79 4.49,-5.84l4.79 -8.99c0.47,-0.94 1.76,-3.71 2.23,-4.66l113.57 -199.72c0.36,-0.7 0.8,-1.59 1.15,-2.3l9.18 -18.36c0.35,-0.71 0.8,-1.6 1.14,-2.31l4.54 -9.23c0.35,-0.71 0.76,-1.62 1.1,-2.33l15.07 -22.81c0.25,-0.39 3.36,-6.63 3.48,-6.85l33.31 -59.64c0.36,-0.69 0.76,-1.62 1.11,-2.34l9.09 -18.46c0.97,-1.94 2.1,-4.21 3.44,-6.88 0.36,-0.7 0.8,-1.59 1.14,-2.3l7.98 -16.12c0.36,-0.71 0.77,-1.62 1.11,-2.34l21.91 -36.62c1.39,-2.81 2.43,-4.89 3.43,-6.89l12.62 -25.25c0.36,-0.71 0.8,-1.59 1.15,-2.31l2.29 -4.58c0.36,-0.7 0.8,-1.59 1.15,-2.3 0.35,-0.71 0.8,-1.59 1.14,-2.3l27.54 -48.19c0.36,-0.71 0.8,-1.59 1.15,-2.31l43.6 -80.33c0.35,-0.7 0.8,-1.59 1.14,-2.3l10.33 -20.66c0.35,-0.69 0.8,-1.58 1.14,-2.29 0.36,-0.7 0.8,-1.6 1.14,-2.3 0.36,-0.7 0.8,-1.59 1.15,-2.3l47.05 -87.23c0.35,-0.69 0.8,-1.58 1.14,-2.3 0.35,-0.7 0.8,-1.59 1.14,-2.29l23.08 -38.9c0.37,-0.69 0.76,-1.62 1.11,-2.33l4.5 -9.27c0.35,-0.7 0.8,-1.59 1.14,-2.3 0.35,-0.7 0.8,-1.6 1.15,-2.3l63.05 -119.41c0.35,-0.71 0.76,-1.62 1.11,-2.33l12.35 -18.63c0.42,-0.6 1.01,-1.42 1.41,-2.04l9.28 -18.25c0.35,-0.7 0.8,-1.59 1.15,-2.3l3.43 -6.89c0.36,-0.7 0.8,-1.59 1.15,-2.3l26.42 -45.88c0.82,-1.67 2.22,-4.48 3.42,-6.91l15.02 -29.74c1.99,-3.06 1.6,-2.07 4.48,-5.84 0.62,-0.8 2.5,-2.98 3.08,-3.8 0.43,-0.6 1.01,-1.42 1.42,-2.03l7 -13.65c0.35,-0.71 0.79,-1.6 1.13,-2.32 1.26,-2.56 2.56,-5.19 3.41,-6.92l29.77 -52.86c0.47,-0.94 1.76,-3.72 2.25,-4.62l26.1 -42.77c1.35,-1.8 4.56,-5.53 4.66,-5.67 2.31,-3.26 0.31,0.31 3.94,-6.4 0.49,-0.92 1.76,-3.7 2.23,-4.65l44.6 -69.01c0.39,-0.64 0.82,-1.58 1.2,-2.24l62.4 -71.87c6.52,-4.7 10.4,-3.38 13.36,-10.73z"/>
   <ellipse class="fil0" cx="11469.5" cy="4830.04" rx="408.4" ry="234.62"/>
  </g>
 </g>
</svg>
